<svg width="300" height="300" xmlns="http://www.w3.org/2000/svg" xmlns:xlink="http://www.w3.org/1999/xlink" xml:space="preserve" overflow="hidden"><defs><clipPath id="clip0"><rect x="688" y="102" width="300" height="300"/></clipPath><linearGradient x1="160.139" y1="0" x2="160.139" y2="299.225" gradientUnits="userSpaceOnUse" spreadMethod="pad" id="fill1"><stop offset="0" stop-color="#BDDDEB"/><stop offset="1" stop-color="#53A9D1"/></linearGradient></defs><g clip-path="url(#clip0)" transform="translate(-688 -102)"><path d="M419.264 117.296 381.711 117.296C377.322 117.296 374.255 118.144 372.51 119.84 370.764 121.535 369.892 124.478 369.892 128.667L369.892 143.478 408.941 143.478 407.444 162.03 369.892 162.03 369.892 205.268 349.096 205.268 349.096 120.438C349.096 112.558 350.816 106.973 354.257 103.681 357.698 100.39 363.608 98.7442 371.986 98.7442L419.264 98.7442 419.264 117.296Z" transform="matrix(1 0 0 1.00259 688 102)"/><path d="M454.572 205.268 435.123 205.418 435.123 92.7597 454.572 92.7597 454.572 205.268Z" transform="matrix(1 0 0 1.00259 688 102)"/><path d="M534.316 205.268 521.3 205.268 515.315 194.945 494.519 206.166C482.949 206.166 475.169 201.977 471.179 193.598 469.185 189.509 467.813 185.095 467.065 180.358 466.317 175.62 465.943 170.683 465.943 165.546 465.943 160.409 465.993 156.619 466.093 154.176 466.192 151.732 466.442 148.889 466.841 145.648 467.24 142.406 467.813 139.688 468.561 137.494 469.309 135.299 470.381 133.03 471.778 130.686 473.174 128.343 474.87 126.472 476.865 125.076 481.353 121.984 487.188 120.438 494.369 120.438L514.866 120.438 534.316 119.241 534.316 205.268ZM514.866 178.039 514.866 137.943 500.055 137.943C494.569 137.943 490.754 140.037 488.609 144.226 486.465 148.416 485.393 154.674 485.393 163.003 485.393 171.331 486.415 177.191 488.46 180.582 490.504 183.973 494.369 185.669 500.055 185.669L514.866 178.039Z" transform="matrix(1 0 0 1.00259 688 102)"/><path d="M614.059 181.629 614.059 183.874C613.461 191.354 610.294 196.99 604.559 200.78 598.824 204.57 591.667 206.465 583.089 206.465 570.422 206.465 561.545 204.171 556.458 199.583 551.771 195.394 549.427 189.21 549.427 181.031L549.427 179.236 567.081 179.236C567.081 183.824 568.278 186.966 570.672 188.661 573.065 190.357 577.205 191.205 583.089 191.205 591.069 191.205 595.058 188.312 595.058 182.527 595.058 177.74 593.662 174.548 590.869 172.952 589.573 172.154 587.927 171.556 585.932 171.157L570.821 168.613C557.655 166.519 551.072 158.29 551.072 143.927 551.072 135.948 553.99 129.739 559.825 125.3 565.66 120.862 573.065 118.643 582.042 118.643 602.489 118.643 612.713 127.47 612.713 145.124L612.713 147.069 595.806 147.069C595.607 142.381 594.36 139.189 592.066 137.494 589.772 135.798 586.555 134.95 582.416 134.95 578.277 134.95 575.16 135.773 573.065 137.419 570.971 139.065 569.924 140.885 569.924 142.88 569.924 148.565 572.218 151.807 576.806 152.605L594.909 155.896C607.676 158.29 614.059 166.868 614.059 181.629Z" transform="matrix(1 0 0 1.00259 688 102)"/><path d="M703.827 205.268 680.487 205.268 658.045 175.047 649.517 187.165 649.517 205.268 630.068 205.268 630.068 92.7597 649.517 92.7597 649.517 163.826 676.747 123.281 698.74 123.281 670.762 161.581 703.827 205.268Z" transform="matrix(1 0 0 1.00259 688 102)"/><path d="M299.225 29.9225 299.225 269.302C299.225 285.817 285.817 299.225 269.302 299.225L29.9225 299.225C13.4083 299.225 0 285.817 0 269.302L0 29.9225C0 13.4083 13.4083 0 29.9225 0L269.302 0C285.817 0 299.225 13.4083 299.225 29.9225Z" fill="url(#fill1)" fill-rule="evenodd" transform="matrix(1 0 0 1.00259 688 102)"/><path d="M299.225 238.57 299.225 269.302C299.225 285.817 285.817 299.225 269.302 299.225L212.981 299.225 110.975 197.218C119.079 204.567 128.636 210.89 139.845 215.105 160.463 222.873 186.737 223.608 219.859 210.267L220.043 211.206C220.207 212.257 221.472 213.37 223.187 212.696L228.689 210.553C230.577 209.838 230.588 208.389 230.311 207.45L237.396 204.684C238.192 204.378 240.662 202.468 238.539 199.467L238.518 199.467 234.159 192.812C233.506 192.087 232.496 191.812 231.608 192.169L226.014 194.324C225.351 193.588 224.392 193.313 223.452 193.68 221.625 194.394 219.788 195.12 217.961 195.834 217.369 196.058 217.205 196.497 217.318 197.069L217.675 198.814C207.366 199.927 189.942 199.375 174.335 187.117 167.435 181.707 160.964 174.052 155.564 163.344L105.34 188.94 97.4136 182.503C115.521 173.276 133.639 164.049 151.747 154.821 150.573 151.78 149.43 148.482 145.52 133.733L86.8231 160 79.7444 152.923 143.765 124.271C142.846 115.965 140.336 92.1124 140.437 81.3802L140.437 81.3702C140.421 80.2361 140.326 79.6776 139.928 79.2726L299.225 238.57ZM66.6902 127.595C67.4513 128.293 68.7329 128.407 70.0376 127.833L70.4864 127.639C70.8724 129.257 71.3083 130.956 71.792 132.697L66.6902 127.595Z" fill="#3B808B" fill-rule="evenodd" transform="matrix(1 0 0 1.00259 688 102)"/><path d="M140.437 81.3802C140.416 79.89 140.264 79.3893 139.468 78.9305 138.712 78.4298 137.569 78.4198 136.476 78.8996L62.9838 110.369C61.8917 110.849 60.8613 111.808 60.3098 112.849 59.7592 113.89 59.6973 114.992 60.1262 115.778L66.2613 127.047 66.3421 127.18C67.0064 128.232 68.5065 128.507 70.0376 127.833L70.4864 127.639C72.4054 135.682 75.5493 145.747 79.7444 152.923L143.765 124.271C142.846 115.963 140.334 92.0974 140.437 81.3702L140.437 81.3802Z" fill="#FFFFFF" transform="matrix(1 0 0 1.00259 688 102)"/><path d="M145.52 133.733 83.8687 161.323C87.4923 168.192 91.9628 175.48 97.4136 182.503 115.521 173.276 133.639 164.049 151.747 154.821 150.573 151.78 149.43 148.482 145.52 133.733Z" fill="#FFFFFF" transform="matrix(1 0 0 1.00259 688 102)"/><path d="M238.518 199.467 234.159 192.812C233.506 192.087 232.496 191.812 231.608 192.169L226.014 194.324C225.351 193.588 224.392 193.313 223.452 193.68 221.625 194.394 219.788 195.12 217.961 195.834 217.369 196.058 217.205 196.497 217.318 197.069L217.675 198.814C207.366 199.927 189.942 199.375 174.335 187.117 167.435 181.707 160.964 174.052 155.564 163.344L103.589 189.832C113.092 200.274 125.024 209.532 139.845 215.105 160.463 222.873 186.737 223.608 219.859 210.267L220.043 211.206C220.207 212.257 221.472 213.37 223.187 212.696L228.689 210.553C230.577 209.838 230.588 208.389 230.311 207.45L237.396 204.684C238.192 204.378 240.662 202.468 238.539 199.467L238.518 199.467Z" fill="#FFFFFF" transform="matrix(1 0 0 1.00259 688 102)"/></g></svg>